<svg xmlns="http://www.w3.org/2000/svg" width="32" height="64" viewBox="0 0 50 24"
    class="h-8 w-16 overflow-visible text-neutral-700 dark:text-neutral-300">
    <path fill="currentColor"
        d="M15.968 19.032H7.584L6.24 23H0.512L8.64 0.535999H14.976L23.104 23H17.312L15.968 19.032ZM14.56 14.808L11.776 6.584L9.024 14.808H14.56ZM39.6578 0.535999V15.832C39.6578 18.2 38.9858 20.024 37.6418 21.304C36.3191 22.584 34.5271 23.224 32.2658 23.224C29.8978 23.224 27.9991 22.552 26.5698 21.208C25.1404 19.864 24.4258 17.9547 24.4258 15.48H29.8658C29.8658 16.4187 30.0578 17.1333 30.4418 17.624C30.8258 18.0933 31.3804 18.328 32.1058 18.328C32.7671 18.328 33.2791 18.1147 33.6418 17.688C34.0044 17.2613 34.1858 16.6427 34.1858 15.832V0.535999H39.6578ZM46.6378 23.256C45.6778 23.256 44.8884 22.9787 44.2698 22.424C43.6724 21.848 43.3738 21.144 43.3738 20.312C43.3738 19.4587 43.6724 18.744 44.2698 18.168C44.8884 17.592 45.6778 17.304 46.6378 17.304C47.5764 17.304 48.3444 17.592 48.9418 18.168C49.5604 18.744 49.8698 19.4587 49.8698 20.312C49.8698 21.144 49.5604 21.848 48.9418 22.424C48.3444 22.9787 47.5764 23.256 46.6378 23.256Z">
    </path>
</svg>