<svg width="48" height="48" viewBox="0 0 48 48" fill="none" xmlns="http://www.w3.org/2000/svg">
  <path
    d="M15.0308 30.9397H6.87745L5.57043 34.7985H0L7.9044 12.9525H14.0661L21.9705 34.7985H16.3378L15.0308 30.9397ZM13.6615 26.8319L10.9541 18.8342L8.27784 26.8319H13.6615ZM38.0689 12.9525V27.8277C38.0689 30.1306 37.4154 31.9044 36.1084 33.1492C34.8221 34.394 33.0794 35.0164 30.8803 35.0164C28.5774 35.0164 26.7309 34.3629 25.341 33.0558C23.9509 31.7488 23.2559 29.892 23.2559 27.4854H28.5463C28.5463 28.3983 28.733 29.0932 29.1065 29.5704C29.4799 30.0268 30.0192 30.2551 30.7247 30.2551C31.3678 30.2551 31.8657 30.0476 32.2184 29.6327C32.571 29.2177 32.7475 28.6161 32.7475 27.8277V12.9525H38.0689ZM44.8569 35.0475C43.9233 35.0475 43.1556 34.7778 42.554 34.2384C41.9731 33.6782 41.6827 32.9936 41.6827 32.1845C41.6827 31.3547 41.9731 30.6596 42.554 30.0995C43.1556 29.5393 43.9233 29.2592 44.8569 29.2592C45.7697 29.2592 46.5166 29.5393 47.0975 30.0995C47.6991 30.6596 48 31.3547 48 32.1845C48 32.9936 47.6991 33.6782 47.0975 34.2384C46.5166 34.7778 45.7697 35.0475 44.8569 35.0475Z"
    fill="#C0C0C0" />
</svg>
  