<svg width="26" height="15" viewBox="0 0 26 15" xmlns="http://www.w3.org/2000/svg">
    <style>
        path {fill:#171717;}
        @media (prefers-color-scheme: dark) {path{fill:#f5f5f5;}}
    </style>
    <path d="M9.89184 11.8374H4.52608L3.66592 14.377H0L5.20192 0H9.25696L14.4589 14.377H10.752L9.89184 11.8374ZM8.99072 9.13408L7.20896 3.87072L5.44768 9.13408H8.99072ZM25.0533 0V9.78944C25.0533 11.305 24.6232 12.4723 23.7631 13.2915C22.9165 14.1107 21.7697 14.5203 20.3224 14.5203C18.8069 14.5203 17.5917 14.0902 16.677 13.2301C15.7622 12.3699 15.3048 11.148 15.3048 9.56416H18.7864C18.7864 10.1649 18.9093 10.6223 19.1551 10.9363C19.4008 11.2367 19.7558 11.3869 20.22 11.3869C20.6433 11.3869 20.9709 11.2504 21.2031 10.9773C21.4351 10.7042 21.5512 10.3083 21.5512 9.78944V0H25.0533Z" />
</svg>