<svg width="16" height="16" viewBox="0 0 16 16" fill="none"
  xmlns="http://www.w3.org/2000/svg">
  <path d="M2.35175 14.2654L1.095 0.169006H14.905L13.647 14.2633L7.99163 15.8311L2.35175 14.2654Z" fill="#1572B6"/>
  <path d="M8.00012 14.6327L12.57 13.3657L13.6451 1.32147H8.00012V14.6327Z" fill="#33A9DC"/>
  <path d="M8.00012 6.42863H10.2879L10.4459 4.65826H8.00012V2.92938H12.3354L12.2939 3.39326L11.8689 8.15751H8.00012V6.42863Z" fill="white"/>
  <path d="M8.01037 10.9186L8.00274 10.9208L6.07737 10.401L5.95424 9.02209H4.21899L4.46112 11.7367L8.00249 12.7196L8.01037 12.7173V10.9186Z" fill="#EBEBEB"/>
  <path d="M10.1409 8.08435L9.93261 10.3996L8.00436 10.9201V12.7189L11.5486 11.7366L11.5746 11.4445L11.8754 8.08435H10.1409Z" fill="white"/>
  <path d="M8.00601 2.92938V4.65826H3.83001L3.79539 4.26976L3.71664 3.39326L3.67526 2.92938H8.00601ZM8.00014 6.42888V8.15776H6.09901L6.06439 7.76926L5.98551 6.89276L5.94426 6.42888H8.00014Z" fill="#EBEBEB"/>
</svg>
