<svg width="16" height="16" viewBox="0 0 16 16" fill="none"
  xmlns="http://www.w3.org/2000/svg">
  <g clip-path="url(#clip0_14_15)">
    <path d="M15.5161 7.8775C15.5161 6.916 14.7876 6.10688 13.8096 5.876L16 0.0141296H5.14501L7.34038 5.8945C6.39313 6.144 5.69488 6.939 5.69488 7.88238C5.69488 8.57563 6.07713 9.19038 6.65776 9.56938C6.42876 9.86525 6.16363 10.1381 5.86326 10.3969C5.29788 10.8779 4.67088 11.2475 3.99363 11.4926C3.38238 11.1181 3.11763 10.457 3.35688 9.86513C4.28901 9.60638 4.96688 8.81588 4.96688 7.88675C4.96688 6.74513 3.94288 5.82025 2.68938 5.82025C1.43113 5.82025 0.407756 6.74951 0.407756 7.8915C0.407756 8.45563 0.662131 8.97313 1.06988 9.34275C1.03413 9.40775 0.998631 9.47213 0.962881 9.5415C0.621631 10.1798 0.234381 10.9009 0.0863807 11.71C-0.208994 13.3276 0.274881 14.627 1.44138 15.3619C2.09863 15.7735 2.82226 15.9815 3.60163 15.9815C4.94088 15.9815 6.30126 15.3711 7.61526 14.7793C8.55276 14.3589 9.52051 13.9194 10.4731 13.707C10.8248 13.6284 11.1914 13.582 11.5786 13.5313C12.3628 13.4296 13.1729 13.3233 13.9014 12.9395C14.752 12.4913 15.3326 11.7421 15.501 10.8824C15.6279 10.2211 15.501 9.55563 15.1748 8.97313C15.3976 8.65128 15.5168 8.26897 15.5161 7.8775ZM14.523 7.8775C14.523 8.52001 13.9473 9.0425 13.2393 9.0425C12.5313 9.0425 11.9555 8.52001 11.9555 7.8775C11.9555 7.66938 12.0166 7.47075 12.1235 7.29975C12.1641 7.23475 12.2154 7.17038 12.266 7.11475C12.3197 7.05755 12.3795 7.00645 12.4444 6.96238L12.4498 6.9575C12.4903 6.92975 12.5361 6.90188 12.582 6.8745C12.582 6.8745 12.587 6.87451 12.587 6.86963C12.6074 6.86038 12.6279 6.84663 12.6485 6.83738C12.6534 6.83738 12.6583 6.8325 12.6635 6.8325C12.6841 6.82375 12.7095 6.81451 12.7348 6.80513C12.7589 6.79671 12.7827 6.78746 12.8061 6.77738C12.8111 6.77738 12.8164 6.77238 12.8213 6.77238C12.8418 6.76813 12.8623 6.75875 12.8824 6.75438C12.8878 6.75438 12.898 6.7495 12.9029 6.7495C12.9283 6.74513 12.9488 6.74025 12.9741 6.73575H12.9795L13.0558 6.72163C13.061 6.72163 13.0708 6.72163 13.0761 6.71725C13.0966 6.71725 13.1168 6.71238 13.1373 6.71238H13.1626C13.188 6.71238 13.2139 6.708 13.2441 6.708H13.3105C13.3305 6.708 13.3463 6.708 13.3663 6.71238H13.3765C13.4175 6.71738 13.458 6.72163 13.499 6.731C14.0796 6.84175 14.523 7.3135 14.523 7.8775ZM6.56588 0.938505H14.5786L12.7398 5.86188C12.6635 5.876 12.5869 5.89888 12.5108 5.92188L10.5753 2.33938L8.63426 5.89875C8.55763 5.87588 8.47613 5.86175 8.39501 5.848L6.56588 0.938505ZM10.208 7.475C10.1114 7.04038 9.86676 6.65225 9.52051 6.36563L10.5753 4.4335L11.6396 6.40713C11.3238 6.69375 11.0946 7.059 11.0029 7.475H10.208ZM7.65626 6.745C7.68163 6.74 7.70213 6.73575 7.72751 6.73088H7.74263C7.76313 6.7265 7.78376 6.7265 7.80376 6.7215H7.82426C7.84476 6.7215 7.85988 6.71713 7.88038 6.71713H8.07913C8.09913 6.71713 8.11476 6.7215 8.12988 6.7215C8.14013 6.7215 8.14501 6.7215 8.15526 6.7265C8.17576 6.73088 8.19088 6.73088 8.21151 6.73575C8.21626 6.73575 8.22163 6.73575 8.23188 6.74013C8.25738 6.74501 8.28276 6.74938 8.30313 6.75425H8.30813C8.32863 6.75863 8.34913 6.763 8.36913 6.77238C8.37451 6.77238 8.37938 6.77725 8.38963 6.77725C8.40476 6.78163 8.42526 6.7865 8.44038 6.79575C8.44576 6.79575 8.45063 6.80013 8.45601 6.80013C8.47601 6.8095 8.49663 6.81438 8.51713 6.82363H8.52201C8.54738 6.83238 8.56788 6.84163 8.58838 6.85588H8.59338C8.61376 6.86513 8.63426 6.87875 8.65476 6.888C8.65976 6.888 8.65976 6.893 8.66451 6.893C8.68501 6.90175 8.70026 6.91588 8.72076 6.92513L8.72613 6.9295C8.78713 6.97113 8.84326 7.01751 8.89888 7.06388L8.90426 7.06825C8.95513 7.119 9.00588 7.17463 9.04688 7.23475C9.17926 7.41975 9.25588 7.63713 9.25588 7.87288C9.25588 8.5155 8.68013 9.03751 7.97213 9.03751C7.26413 9.03751 6.68838 8.5155 6.68838 7.87288C6.68313 7.33188 7.09576 6.87438 7.65626 6.745ZM2.64351 6.71226C3.35163 6.71226 3.92726 7.23476 3.92726 7.87725C3.92726 8.51988 3.35163 9.04225 2.64351 9.04225C1.93551 9.04225 1.35976 8.51988 1.35976 7.87725C1.35976 7.23476 1.93551 6.71226 2.64351 6.71226ZM14.4923 10.7206C14.3804 11.3119 13.9775 11.83 13.3868 12.1395C12.8315 12.431 12.1489 12.5233 11.4306 12.6156C11.0386 12.6664 10.626 12.722 10.2285 12.8099C9.16901 13.0458 8.15038 13.5081 7.16213 13.9515C5.89888 14.5204 4.70651 15.0565 3.60163 15.0565C3.02588 15.0565 2.51126 14.9086 2.02251 14.599C0.901881 13.8964 0.957506 12.579 1.09038 11.8578C1.21238 11.1825 1.55376 10.5493 1.87988 9.94376C1.89988 9.90663 1.91551 9.87438 1.93551 9.83725C2.04788 9.87438 2.16501 9.90225 2.28713 9.92075C2.09376 10.9008 2.64351 11.913 3.71338 12.4125L3.90713 12.5048L4.11576 12.4354C5.00738 12.1488 5.83251 11.682 6.56101 11.0579C6.97363 10.7064 7.32526 10.3275 7.62063 9.91588C7.73776 9.93451 7.85501 9.93938 7.97213 9.93938C9.03176 9.93938 9.92288 9.27813 10.1778 8.3905H11.0333C11.2881 9.28263 12.1796 9.93925 13.2393 9.93925C13.6621 9.93925 14.0543 9.833 14.3901 9.65275C14.523 9.99938 14.5635 10.3598 14.4923 10.7206Z" fill="#99425B"/>
  </g>
  <defs>
    <clipPath id="clip0_14_15">
      <rect width="16" height="16" fill="white"/>
    </clipPath>
  </defs>
</svg>
