<svg width="16" height="16" viewBox="0 0 16 16" fill="none"
  xmlns="http://www.w3.org/2000/svg">
  <path fill-rule="evenodd" clip-rule="evenodd" d="M11.0047 5.3515C11.2054 5.93188 11.3499 6.52438 11.3974 7.1385C11.4564 7.90038 11.4294 8.65688 11.2687 9.40625C11.2644 9.42688 11.2551 9.44625 11.2482 9.46625C11.1979 9.46638 11.1465 9.46013 11.0972 9.46775C10.6811 9.53313 10.2654 9.60088 9.84962 9.66825C9.41987 9.73788 8.98949 9.80475 8.56049 9.87913C8.40849 9.90538 8.22037 9.874 8.15899 10.0843C8.15724 10.09 8.13974 10.091 8.12962 10.0943L8.15037 8.83788L8.12924 5.80638L8.32949 5.772C8.65699 5.71838 8.98449 5.664 9.31224 5.61188C9.70337 5.54975 10.0949 5.48938 10.4862 5.42875C10.6589 5.40188 10.8317 5.37725 11.0047 5.3515Z" fill="#439934"/>
  <path fill-rule="evenodd" clip-rule="evenodd" d="M7.71613 13.7567C7.50488 13.5751 7.28625 13.4015 7.08375 13.2105C5.99413 12.1827 5.19713 10.9731 4.80463 9.51474C4.6965 9.11336 4.62438 8.70549 4.60125 8.29074C4.585 8.00049 4.5615 7.70761 4.582 7.41886C4.63663 6.65086 4.74763 5.89024 4.97288 5.15049L4.98525 5.13324C5.00713 5.16236 5.03863 5.18811 5.04975 5.22099C5.26963 5.86849 5.48788 6.51649 5.705 7.16486C6.38725 9.20236 7.06863 11.2404 7.752 13.2774C7.76538 13.3171 7.8 13.3497 7.82488 13.3856L7.71613 13.7567Z" fill="#45A538"/>
  <path fill-rule="evenodd" clip-rule="evenodd" d="M11.0048 5.35151C10.8318 5.37726 10.6588 5.40189 10.4861 5.42851C10.0948 5.48914 9.70325 5.54951 9.31213 5.61164C8.98438 5.66376 8.65688 5.71814 8.32938 5.77176L8.12913 5.80614L8.12763 5.67551C8.121 5.56814 8.10963 5.46089 8.10838 5.35351C8.09975 4.66876 8.09438 3.98401 8.08588 3.29926C8.08063 2.87064 8.07275 2.44214 8.064 2.01364C8.05863 1.74739 8.05288 1.48101 8.04088 1.21514C8.03438 1.07226 8.01138 0.930137 8.002 0.787261C7.99675 0.705136 8.004 0.622386 8.00563 0.539886C8.10775 0.737761 8.20763 0.937136 8.31263 1.13351C8.4785 1.44401 8.74275 1.67276 8.98063 1.92239C9.921 2.90889 10.5886 4.05589 11.0048 5.35151Z" fill="#46A037"/>
  <path fill-rule="evenodd" clip-rule="evenodd" d="M8.12949 10.0941C8.13962 10.0909 8.15724 10.0899 8.15887 10.0841C8.22024 9.87387 8.40837 9.90525 8.56037 9.879C8.98937 9.80475 9.41974 9.73775 9.84949 9.66812C10.2652 9.60075 10.681 9.533 11.0971 9.46762C11.1464 9.45987 11.1977 9.46625 11.2481 9.46612C11.1704 9.74362 11.1091 10.0271 11.0105 10.297C10.8985 10.6031 10.763 10.9019 10.6191 11.1947C10.4037 11.6316 10.1371 12.0413 9.82499 12.4151C9.58512 12.7036 9.31774 12.9702 9.04974 13.2336C8.90162 13.3792 8.72699 13.4979 8.56449 13.6287L8.52237 13.6L8.37062 13.4702L8.21362 13.1261C8.10638 12.7247 8.04787 12.3118 8.03937 11.8964L8.04224 11.8262L8.06362 11.523C8.07074 11.4195 8.08024 11.3161 8.08462 11.2124C8.10074 10.8396 8.11474 10.4669 8.12949 10.0941Z" fill="#409433"/>
  <path fill-rule="evenodd" clip-rule="evenodd" d="M8.12951 10.0941C8.11476 10.4669 8.10076 10.8396 8.08488 11.2125C8.08051 11.3163 8.07101 11.4196 8.06388 11.5231L7.96826 11.5593C7.75588 10.934 7.54338 10.3154 7.33551 9.69514C6.99176 8.66901 6.65213 7.64126 6.30888 6.61489C6.03164 5.78645 5.75248 4.95865 5.47138 4.13151C5.45826 4.09276 5.42051 4.06252 5.39426 4.02827L6.00626 2.90302C6.02726 2.93952 6.05501 2.97364 6.06826 3.01289C6.3517 3.85065 6.6337 4.68891 6.91426 5.52764C7.27876 6.61889 7.64101 7.71102 8.00526 8.80239C8.01976 8.84601 8.04376 8.88627 8.06663 8.93514L8.15038 8.83764L8.12951 10.0941Z" fill="#4FAA41"/>
  <path fill-rule="evenodd" clip-rule="evenodd" d="M5.39438 4.02838C5.42063 4.06263 5.45826 4.09288 5.47151 4.13163C5.7526 4.95877 6.03177 5.78656 6.30901 6.61501C6.65226 7.64138 6.99188 8.66913 7.33563 9.69526C7.54338 10.3154 7.75588 10.9341 7.96838 11.5594L8.06401 11.5233L8.04263 11.8265L8.02326 11.8964C7.99001 12.2284 7.96201 12.5611 7.92151 12.8924C7.90113 13.0584 7.85788 13.2214 7.82501 13.3858C7.80026 13.3499 7.76551 13.3173 7.75213 13.2775C7.06876 11.2404 6.38738 9.20251 5.70513 7.16501C5.48808 6.51659 5.26967 5.86863 5.04988 5.22113C5.03876 5.18826 5.00738 5.16251 4.98538 5.13338L5.39438 4.02838Z" fill="#4AA73C"/>
  <path fill-rule="evenodd" clip-rule="evenodd" d="M8.15026 8.83775L8.06651 8.93525C8.04363 8.88638 8.01963 8.846 8.00513 8.8025C7.64101 7.71113 7.27863 6.619 6.91413 5.52775C6.63358 4.68902 6.35158 3.85077 6.06813 3.013C6.05501 2.97375 6.02726 2.9395 6.00613 2.90313L6.76301 1.9075C6.78688 1.93938 6.82088 1.96775 6.83326 2.00363C7.04338 2.61875 7.25163 3.23463 7.45863 3.85088C7.65201 4.42638 7.84251 5.00275 8.03813 5.5775C8.05126 5.616 8.09688 5.64325 8.12738 5.67575L8.12888 5.80638C8.13613 6.81663 8.14326 7.82725 8.15026 8.83775Z" fill="#57AE47"/>
  <path fill-rule="evenodd" clip-rule="evenodd" d="M8.12762 5.6755C8.09712 5.643 8.05149 5.61575 8.03837 5.57725C7.84274 5.0025 7.65224 4.42612 7.45887 3.85062C7.25187 3.23437 7.04362 2.61862 6.83349 2.00337C6.82112 1.9675 6.78712 1.93912 6.76324 1.90725C7.00937 1.66625 7.24787 1.41662 7.50387 1.18675C7.73149 0.982495 7.91449 0.763495 7.92287 0.440745C7.92324 0.42737 7.93024 0.413995 7.94099 0.376495L8.00587 0.539745C8.00424 0.62237 7.99687 0.704995 8.00224 0.78712C8.01162 0.929995 8.03462 1.07212 8.04112 1.215C8.05312 1.48087 8.05887 1.74725 8.06424 2.0135C8.07287 2.442 8.08075 2.8705 8.08612 3.29912C8.0945 3.98387 8.1 4.66862 8.10862 5.35337C8.10962 5.461 8.12087 5.56812 8.12762 5.6755Z" fill="#60B24F"/>
  <path fill-rule="evenodd" clip-rule="evenodd" d="M7.82475 13.3856C7.85763 13.2212 7.90088 13.0581 7.92125 12.8922C7.96188 12.5611 7.98975 12.2282 8.023 11.8962L8.03125 11.895L8.0395 11.8964C8.04801 12.3118 8.10651 12.7247 8.21375 13.1261C8.19175 13.1551 8.16063 13.181 8.149 13.2137C8.05813 13.47 7.9725 13.7282 7.88113 13.9845C7.86863 14.0195 7.83388 14.0467 7.80938 14.0775L7.716 13.7567L7.82475 13.3856Z" fill="#A9AA88"/>
  <path fill-rule="evenodd" clip-rule="evenodd" d="M7.80951 14.0776C7.83401 14.0469 7.86888 14.0196 7.88126 13.9846C7.97263 13.7284 8.05838 13.4703 8.14913 13.2139C8.16076 13.1811 8.19176 13.1553 8.21388 13.1263L8.37076 13.4705C8.33976 13.5145 8.29701 13.5541 8.27976 13.6031L7.97926 14.4855C7.96688 14.5209 7.92463 14.5459 7.89638 14.5758L7.80951 14.0776Z" fill="#B6B598"/>
  <path fill-rule="evenodd" clip-rule="evenodd" d="M7.89636 14.5756C7.92474 14.5459 7.96686 14.5207 7.97924 14.4854L8.27974 13.603C8.29686 13.5541 8.33974 13.5144 8.37074 13.4704L8.52261 13.6C8.44924 13.6725 8.40849 13.7562 8.43299 13.8621L8.38686 14.0131C8.36586 14.039 8.33549 14.0615 8.32511 14.0911C8.22024 14.3915 8.12011 14.6935 8.01449 14.9939C8.00111 15.032 7.96399 15.0619 7.93774 15.0954C7.92411 14.922 7.91024 14.749 7.89636 14.5756Z" fill="#C2C1A7"/>
  <path fill-rule="evenodd" clip-rule="evenodd" d="M7.93788 15.0954C7.964 15.0617 8.00113 15.0319 8.01463 14.9939C8.12025 14.6936 8.22038 14.3916 8.32525 14.0911C8.33563 14.0616 8.36588 14.039 8.387 14.0131L8.32338 14.7062C8.30638 14.7259 8.28175 14.743 8.27363 14.7659C8.20175 14.9676 8.134 15.1709 8.06188 15.3726C8.047 15.4142 8.0185 15.451 7.99625 15.4899C7.9765 15.464 7.94113 15.439 7.9395 15.412C7.93313 15.3069 7.9375 15.201 7.93788 15.0954Z" fill="#CECDB7"/>
  <path fill-rule="evenodd" clip-rule="evenodd" d="M7.99612 15.4899C8.01837 15.4509 8.04687 15.4141 8.06175 15.3726C8.134 15.171 8.20162 14.9677 8.2735 14.7659C8.28162 14.743 8.30637 14.726 8.32325 14.7062L8.32475 15.1612L8.1725 15.5517L7.99612 15.4899Z" fill="#DBDAC7"/>
  <path fill-rule="evenodd" clip-rule="evenodd" d="M8.17249 15.5519L8.32474 15.1614L8.35611 15.6234L8.17249 15.5519Z" fill="#EBE9DC"/>
  <path fill-rule="evenodd" clip-rule="evenodd" d="M8.43299 13.8623C8.40849 13.7564 8.44911 13.6725 8.52261 13.6001L8.56474 13.6289L8.43299 13.8623Z" fill="#CECDB7"/>
  <path fill-rule="evenodd" clip-rule="evenodd" d="M8.03951 11.8965L8.03126 11.8951L8.02301 11.8964L8.04239 11.8265L8.03951 11.8965Z" fill="#4FAA41"/>
</svg>
