<svg width="16" height="16" viewBox="0 0 16 16" fill="none"
  xmlns="http://www.w3.org/2000/svg">
  <g clip-path="url(#clip0_18_80)">
    <path d="M14.6185 12.2259C13.7606 12.2025 13.1055 12.2824 12.5454 12.5185C12.3863 12.5856 12.1323 12.5875 12.1063 12.7869C12.1938 12.8785 12.2074 13.0155 12.2769 13.1283C12.4106 13.3445 12.6364 13.6348 12.8379 13.7868C13.0581 13.953 13.285 14.1306 13.521 14.2745C13.9408 14.5304 14.4094 14.6766 14.8135 14.933C15.0518 15.0843 15.2884 15.2746 15.5208 15.4451C15.6358 15.5295 15.7129 15.6606 15.8623 15.7135V15.6893C15.7838 15.5893 15.7635 15.452 15.6915 15.3476L15.3744 15.0305C15.0644 14.619 14.6708 14.2575 14.2524 13.9574C13.9188 13.7179 13.1721 13.3944 13.033 13.0063L13.0086 12.9819C13.2451 12.9551 13.522 12.8696 13.7404 12.811C14.1071 12.7128 14.4349 12.7381 14.8135 12.6404L15.3256 12.494V12.3965C15.1343 12.2001 14.9978 11.9401 14.7891 11.7624C14.2429 11.2974 13.6469 10.8328 13.0331 10.4453C12.6926 10.2305 12.272 10.0909 11.9111 9.90876C11.7898 9.84739 11.5765 9.81551 11.4964 9.71351C11.3068 9.47201 11.2036 9.16576 11.0575 8.88439C10.7514 8.29476 10.4508 7.65089 10.1795 7.03051C9.99451 6.60751 9.87364 6.19051 9.64289 5.81101C8.53539 3.99014 7.34339 2.89126 5.49676 1.81101C5.10376 1.58126 4.63064 1.49064 4.13064 1.37189C3.86251 1.35576 3.59414 1.33939 3.32589 1.32301C3.16201 1.25476 2.99176 1.05439 2.83814 0.957136C2.22639 0.570636 0.657139 -0.269989 0.204139 0.835261C-0.0819856 1.53289 0.631764 2.21339 0.886889 2.56701C1.06614 2.81476 1.29551 3.09289 1.42351 3.37176C1.50776 3.55514 1.52226 3.73901 1.59439 3.93289C1.77151 4.41064 1.92589 4.93039 2.15526 5.37176C2.27114 5.59526 2.39889 5.83051 2.54551 6.03026C2.63526 6.15289 2.78939 6.20689 2.81364 6.39614C2.66314 6.60689 2.65451 6.93414 2.56989 7.20114C2.18864 8.40301 2.33251 9.89701 2.88701 10.7865C3.05701 11.0598 3.45789 11.6454 4.00889 11.4206C4.49089 11.2244 4.38326 10.6159 4.52114 10.0791C4.55226 9.95751 4.53314 9.86801 4.59426 9.78651V9.81089L5.03339 10.6889C5.35839 11.2123 5.93489 11.7591 6.42364 12.1281C6.67701 12.3195 6.87651 12.6503 7.20414 12.7623V12.7378H7.17976C7.11626 12.6389 7.01689 12.5979 6.93589 12.5184C6.74501 12.3313 6.53276 12.0986 6.37501 11.8843C5.93051 11.2809 5.53776 10.6205 5.17989 9.93314C5.00889 9.60476 4.86026 9.24276 4.71626 8.90864C4.66076 8.77989 4.66151 8.58501 4.54576 8.51839C4.38789 8.76314 4.15551 8.96114 4.03351 9.25014C3.83839 9.71214 3.81326 10.2756 3.74089 10.8599C3.69814 10.8751 3.71714 10.8646 3.69201 10.8841C3.35226 10.8023 3.23301 10.4526 3.10664 10.1525C2.78739 9.39376 2.72801 8.17226 3.00901 7.29889C3.08176 7.07276 3.41026 6.36126 3.27726 6.15239C3.21376 5.94414 3.00426 5.82364 2.88714 5.66451C2.74201 5.46776 2.59726 5.20876 2.49664 4.98151C2.23539 4.39014 2.11339 3.72601 1.83826 3.12801C1.70664 2.84214 1.48426 2.55276 1.30164 2.29876C1.09951 2.01714 0.873014 1.80976 0.716264 1.46939C0.660514 1.34839 0.584889 1.15464 0.667389 1.03026C0.693639 0.946386 0.730889 0.911386 0.813764 0.884011C0.955264 0.774886 1.34926 0.920261 1.49651 0.981386C1.88764 1.14389 2.21414 1.29864 2.54551 1.51814C2.70439 1.62364 2.86539 1.82751 3.05764 1.88401H3.27714C3.62051 1.96289 4.00514 1.90839 4.32601 2.00589C4.89301 2.17814 5.40114 2.44626 5.86251 2.73764C7.26826 3.62539 8.41776 4.88889 9.20401 6.39626C9.33051 6.63901 9.38526 6.87051 9.49664 7.12801C9.72139 7.64714 10.0045 8.18126 10.2281 8.68901C10.4514 9.19551 10.6689 9.70664 10.9844 10.1281C11.1503 10.3496 11.7908 10.4685 12.082 10.5916C12.286 10.6778 12.6204 10.7678 12.8138 10.8841C13.1829 11.1069 13.5406 11.372 13.887 11.616C14.0599 11.7379 14.592 12.0055 14.6185 12.2259ZM3.71614 2.93326C3.53726 2.92989 3.41076 2.95276 3.27701 2.98189V3.00626H3.30139C3.38676 3.18151 3.53739 3.29451 3.64276 3.44539C3.72401 3.61626 3.80539 3.78689 3.88676 3.95751L3.91101 3.93339C4.06214 3.82676 4.13126 3.65664 4.13039 3.39664C4.06989 3.33301 4.06101 3.25326 4.00851 3.17726C3.93901 3.07589 3.80414 3.01826 3.71614 2.93326Z" fill="#00618A"/>
  </g>
  <defs>
    <clipPath id="clip0_18_80">
      <rect width="16" height="16" fill="white"/>
    </clipPath>
  </defs>
</svg>
