<svg width="16" height="16" viewBox="0 0 16 16" fill="none"
  xmlns="http://www.w3.org/2000/svg">
  <path d="M14.0964 3.79175L8.58425 0.591127C8.23663 0.393127 7.784 0.393127 7.43363 0.591127L1.86263 3.79175C1.50388 3.99813 1.25 4.386 1.25 4.80088V11.1936C1.25 11.6085 1.5105 11.9965 1.86925 12.204L3.34113 13.04C4.04463 13.3865 4.29325 13.3865 4.61338 13.3865C5.655 13.3865 6.25 12.7566 6.25 11.658V5.34675C6.25 5.25763 6.20363 5.125 6.11613 5.125H5.41325C5.32425 5.125 5.125 5.25763 5.125 5.34663V11.6579C5.125 12.1449 4.6845 12.6295 3.86125 12.2179L2.34037 11.3413C2.28737 11.3125 2.25 11.2546 2.25 11.1936V4.80088C2.25 4.74063 2.31938 4.68013 2.37275 4.64925L7.92575 1.45413C7.97762 1.42475 8.05387 1.42475 8.10563 1.45413L13.5909 4.6485C13.6434 4.68013 13.6249 4.73875 13.6249 4.80088V11.1936C13.6249 11.2546 13.6477 11.314 13.5959 11.3434L8.08512 14.5404C8.03788 14.5688 7.97925 14.5688 7.9275 14.5404L6.51412 13.6968C6.4715 13.672 6.42088 13.6631 6.38 13.686C5.98675 13.9089 5.91425 13.9385 5.54537 14.0664C5.45462 14.098 5.32075 14.1529 5.59662 14.3075L7.44637 15.4018C7.62297 15.5038 7.82331 15.5575 8.02725 15.5575C8.2325 15.5575 8.4335 15.5043 8.61063 15.4018L14.0962 12.204C14.455 11.995 14.625 11.6085 14.625 11.1936V4.80088C14.625 4.386 14.455 3.99913 14.0964 3.79175ZM9.73875 10.1806C8.273 10.1806 7.95013 9.77625 7.8425 9.04738C7.83 8.96888 7.76337 8.875 7.6835 8.875H6.96712C6.8785 8.875 6.80725 8.9825 6.80725 9.07075C6.80725 10.004 7.31463 11.1348 9.73888 11.1348C11.4938 11.1348 12.4999 10.4529 12.4999 9.24613C12.4999 8.04963 11.6915 7.73563 9.98962 7.51038C8.26937 7.283 8.09463 7.16813 8.09463 6.76513C8.09463 6.43288 8.24262 5.98975 9.51637 5.98975C10.6545 5.98975 11.074 6.234 11.2466 7.00113C11.2614 7.07325 11.3272 7.125 11.4016 7.125H12.1209C12.1651 7.125 12.2074 7.10713 12.2384 7.0755C12.2684 7.0415 12.2842 6.99888 12.2802 6.95313C12.1689 5.63213 11.2912 5.0165 9.51625 5.0165C7.93737 5.0165 6.9955 5.68325 6.9955 6.80088C6.9955 8.01313 7.93262 8.34813 9.44825 8.498C11.2614 8.67575 11.4024 8.94075 11.4024 9.29738C11.4024 9.91675 10.9051 10.1806 9.73875 10.1806Z" fill="#83CD29"/>
</svg>
