<svg width="16" height="16" viewBox="0 0 16 16" fill="none" xmlns="http://www.w3.org/2000/svg">
<path d="M15.8338 12.305C15.2638 12.45 14.9113 12.3113 14.595 11.8363C13.885 10.7725 13.1013 9.75752 12.345 8.72377C12.2475 8.59002 12.1463 8.45877 12.02 8.29252C11.125 9.50002 10.2313 10.65 9.39251 11.8463C9.09251 12.2738 8.77751 12.46 8.21751 12.3088L11.5825 7.79252L8.45001 3.71377C8.98876 3.60877 9.36126 3.66252 9.69126 4.14502C10.42 5.21002 11.2238 6.22377 12.025 7.29627C12.8313 6.22752 13.625 5.21252 14.375 4.15752C14.6763 3.73002 15 3.56752 15.5413 3.72502C15.1313 4.26877 14.73 4.80377 14.3263 5.33502C13.7813 6.05127 13.2463 6.77627 12.6813 7.47752C12.48 7.72752 12.5125 7.89002 12.6925 8.12627C13.7375 9.50002 14.77 10.8875 15.8338 12.305ZM0.166256 7.71752C0.256256 7.26627 0.316256 6.80627 0.441256 6.36377C1.19126 3.68502 4.26626 2.57127 6.37876 4.23127C7.61626 5.20502 7.92376 6.57752 7.86251 8.12502H0.887506C0.782506 10.9013 2.78126 12.5775 5.32876 11.7225C6.22251 11.4225 6.74876 10.7225 7.01251 9.84752C7.14626 9.40877 7.36751 9.34002 7.78001 9.46502C7.56876 10.56 7.09001 11.475 6.09001 12.0475C4.59001 12.905 2.44876 12.6275 1.32251 11.4363C0.657506 10.7363 0.375006 9.86502 0.250006 8.92377C0.231256 8.77377 0.192506 8.62627 0.162506 8.47752C0.165006 8.22419 0.166256 7.97085 0.166256 7.71752ZM0.900006 7.53127H7.20376C7.16251 5.52377 5.91251 4.09752 4.20376 4.08502C2.32876 4.07002 0.981256 5.46252 0.900006 7.53127Z" fill="black"/>
</svg>
